<svg width="641" height="418" viewBox="0 0 641 418" fill="none" xmlns="http://www.w3.org/2000/svg">
<rect width="640" height="417" fill="#F7F8EE"/>
<line x1="55.5" y1="0.00119904" x2="54.5" y2="417.001" stroke="#E79191"/>
<line x1="55.5" y1="0.00119904" x2="54.5" y2="417.001" stroke="#E79191"/>
<line x1="55.5" y1="0.00119904" x2="54.5" y2="417.001" stroke="#E79191"/>
<line x1="0.0015625" y1="30" x2="640.001" y2="31" stroke="#97D4F5" stroke-width="2"/>
<line x1="0.0015625" y1="58" x2="640.001" y2="59" stroke="#97D4F5" stroke-width="2"/>
<line x1="0.0015625" y1="86" x2="640.001" y2="87" stroke="#97D4F5" stroke-width="2"/>
<line x1="0.0015625" y1="114" x2="640.001" y2="115" stroke="#97D4F5" stroke-width="2"/>
<line x1="0.0015625" y1="142" x2="640.001" y2="143" stroke="#97D4F5" stroke-width="2"/>
<line x1="0.0015625" y1="170" x2="640.001" y2="171" stroke="#97D4F5" stroke-width="2"/>
<line x1="0.0015625" y1="367" x2="640.001" y2="368" stroke="#97D4F5" stroke-width="2"/>
<line x1="0.0015625" y1="395" x2="640.001" y2="396" stroke="#97D4F5" stroke-width="2"/>
<line x1="0.0015625" y1="310" x2="640.001" y2="311" stroke="#97D4F5" stroke-width="2"/>
<line x1="0.0015625" y1="338" x2="640.001" y2="339" stroke="#97D4F5" stroke-width="2"/>
<line x1="0.0015625" y1="198" x2="640.001" y2="199" stroke="#97D4F5" stroke-width="2"/>
<line x1="0.0015625" y1="226" x2="640.001" y2="227" stroke="#97D4F5" stroke-width="2"/>
<line x1="0.0015625" y1="254" x2="640.001" y2="255" stroke="#97D4F5" stroke-width="2"/>
<line x1="0.0015625" y1="282" x2="640.001" y2="283" stroke="#97D4F5" stroke-width="2"/>
<line x1="45.5" y1="0.00119904" x2="44.5" y2="417.001" stroke="#E79191"/>
<line x1="45.5" y1="0.00119904" x2="44.5" y2="417.001" stroke="#E79191"/>
<line x1="45.5" y1="0.00119904" x2="44.5" y2="417.001" stroke="#E79191"/>
</svg>
