<svg width="640" height="483" viewBox="0 0 640 483" fill="none" xmlns="http://www.w3.org/2000/svg">
<rect y="57" width="639.976" height="425.654" rx="37" fill="#F4C6E4"/>
<rect x="66" y="85" width="508" height="337" rx="76" fill="#D4BFF5"/>
<rect x="238" y="453" width="168" height="19" rx="9" fill="#FBA8E4"/>
<rect x="244" y="458" width="152" height="10" rx="5" fill="#F4C6E4"/>
<circle cx="46" cy="441" r="27" fill="#FBA8E4"/>
<circle cx="320" cy="438" r="7" fill="#FBA8E4"/>
<circle cx="293" cy="438" r="7" fill="#FBA8E4"/>
<circle cx="374" cy="438" r="7" fill="#FBA8E4"/>
<circle cx="266" cy="438" r="7" fill="#FBA8E4"/>
<circle cx="347" cy="438" r="7" fill="#FBA8E4"/>
<circle cx="598" cy="441" r="27" fill="#FBA8E4"/>
<path d="M68.7383 59.6152C69.4605 60.792 70.9999 61.1606 72.1767 60.4384C73.3535 59.7163 73.7221 58.1769 72.9999 57.0001L68.7383 59.6152ZM50.8427 25.6719C57.119 21.8205 59.0848 13.6104 55.2334 7.33407C51.3821 1.05773 43.1719 -0.908073 36.8956 2.94331C30.6193 6.7947 28.6535 15.0048 32.5048 21.2812C36.3562 27.5575 44.5664 29.5233 50.8427 25.6719ZM72.9999 57.0001L45.9999 13.0001L41.7383 15.6152L68.7383 59.6152L72.9999 57.0001Z" fill="#FBA8E4"/>
<path d="M68.8347 57.4634C68.1446 58.6592 68.5546 60.1881 69.7505 60.8782C70.9464 61.5683 72.4752 61.1583 73.1653 59.9624L68.8347 57.4634ZM90.1379 25.5483C96.516 29.2289 104.67 27.0421 108.351 20.664C112.031 14.286 109.844 6.13195 103.466 2.45144C97.0882 -1.22907 88.9342 0.957703 85.2536 7.33574C81.5731 13.7138 83.7599 21.8678 90.1379 25.5483ZM73.1653 59.9624L98.9674 15.2494L94.6368 12.7504L68.8347 57.4634L73.1653 59.9624Z" fill="#FBA8E4"/>
</svg>
