<svg width="500" height="500" viewBox="0 0 200 200" fill="none" xmlns="http://www.w3.org/2000/svg">
<rect width="200" height="200" fill="#FFCD11"/>
<path d="M70.9375 200C70.2103 199.014 69.5868 198.041 69.0129 197.039C65.0783 190.173 69.1762 181.783 76.7823 179.929C77.2877 179.806 77.7805 179.632 78.4401 179.432C76.403 176.371 74.0157 169.982 74 166.266C74 164.387 74.8154 162.661 76.7823 160.5C79.9182 157.992 78.4401 158.5 83.0214 157.328C84.9447 157.261 86.8968 156.952 88.7851 157.177C92.4382 157.614 95.0547 159.884 97.2753 162.661C97.6932 163.184 98.1236 163.697 98.6903 164.387C99.3399 163.415 99.9315 162.552 100.5 161.675C103.185 157.532 108.986 154.446 114.513 155.651C119.411 156.72 123.354 161.224 123.524 166.266C123.601 168.54 123.417 170.756 122.445 172.857C122.226 173.33 122.129 173.859 121.949 174.45C125.537 174.787 128.632 176.043 131.304 178.187C138.91 184.288 137.23 194.892 129.476 198.643C129.233 198.76 129.005 198.905 128.594 199.108C127.414 199.452 126.409 199.726 125.405 200C124.407 200 123.409 200 122.259 199.966C122.017 199.885 121.946 199.908 121.892 200C121.689 200 121.486 200 121.152 199.904C119.228 199.255 117.436 198.702 115.451 198.088C115.658 198.891 115.802 199.445 115.946 200C100.985 200 86.0247 200 70.9375 200ZM92.8908 180.344C90.4229 186.262 94.8292 193.18 101.941 192.929C107.449 192.735 111.585 187.128 110.428 181.726C109.38 176.84 104.371 173.61 99.4981 174.725C96.4255 175.429 94.1189 177.112 92.8908 180.344Z" fill="#FF88D3"/>
<path d="M27.9815 2.5784e-07C30.0749 0.729486 32.1116 1.31356 33.9932 2.21979C37.5295 3.92296 39.9162 6.69202 40.8727 10.5639C42.1949 15.9158 39.1906 21.7966 34.1672 24.0243C28.7271 26.4368 23.6593 25.4717 18.7408 22.6001C18.1981 22.2832 17.6894 21.9085 17.1553 21.5761C17.0522 21.5119 16.9041 21.52 16.6739 21.4744C16.6739 21.7984 16.6611 22.0793 16.6758 22.3588C16.9336 27.2592 16.2544 31.8404 12.5059 35.4905C9.50023 38.4172 5.93383 39.1565 1.93857 38.4498C1.3644 38.3483 0.79481 38.2209 0.111563 38.1067C2.62791e-05 28.9133 2.63033e-05 19.7184 0.0935671 10.4089C0.668044 10.6184 1.15922 10.9284 1.62835 11.2687C6.72037 14.9632 14.3315 12.2522 15.6221 6.0946C16.0269 4.16305 15.5038 2.03701 15.4054 0C19.5552 0 23.705 -1.24304e-08 27.9815 2.5784e-07Z" fill="#FF88D3"/>
<path d="M0 174.721C2.56112 174.925 4.60651 176.271 6.4564 177.95C7.43979 178.843 8.33034 179.838 9.3806 180.907C10.6576 178.518 12.1637 176.603 14.3737 175.232C21.013 171.112 29.2068 174.303 31.7866 181.227C34.25 187.838 32.3769 193.633 28.0403 198.855C27.7855 199.161 27.5622 199.494 27.3108 199.908C23.2376 200 19.1779 200 14.9782 199.905C13.3338 196.509 10.5451 195.091 7.13776 194.917C4.3846 194.776 2.04266 196.037 0 197.838C0 190.174 0 182.511 0 174.721Z" fill="#FF88D3"/>
<path d="M200 37.441C197.594 36.7176 195.976 34.9582 194.617 32.9003C192.601 29.8473 192.032 26.4802 192.409 22.8943C192.482 22.1955 192.419 21.4825 192.419 20.8829C190.254 20.7641 188.247 20.7619 186.269 20.5241C181.283 19.9249 176.885 14.8081 176.727 9.80337C176.607 6.01052 177.949 2.88537 180.497 0.0795204C186.492 7.98635e-05 192.444 7.98474e-05 198.522 0.11155C198.472 1.64272 198.068 3.08005 198.178 4.47735C198.296 5.99591 198.331 7.7305 200 8.64873C200 18.2039 200 27.7591 200 37.441Z" fill="#FF88D3"/>
<path d="M116.09 0C116.396 2.09325 116.876 4.21269 116.696 6.27457C116.252 11.3697 114.163 15.7138 109.356 18.0328C101.907 21.6258 93.8617 17.1945 92.4191 9.44764C92.1665 8.09125 91.9976 6.71147 91.9079 5.33481C91.822 4.01455 91.8894 2.6843 91.8894 1.48635C89.8625 2.16371 87.7573 3.18493 85.5449 3.54193C80.5976 4.34026 75.8835 3.66744 71.9125 0.0891962C86.5822 8.05468e-09 101.273 0 116.09 0Z" fill="#FF88D3"/>
<path d="M181.748 200C181.995 199.589 182.291 199.015 182.755 198.795C184.961 197.75 187.214 196.801 189.476 195.806C188.821 194.831 188.034 193.712 187.299 192.559C183.717 186.944 185.261 179.375 190.737 175.917C193.509 174.167 196.547 173.622 199.889 174.302C200 182.86 200 191.395 200 200C193.959 200 187.917 200 181.748 200Z" fill="#FF88D3"/>
<path d="M60.2858 150.478C60.4211 154.515 59.2774 157.948 56.1415 160.455C55.0093 161.361 53.6122 161.935 52.2503 162.704C46.2758 164.313 41.3054 162.517 36.8193 158.287C36.4787 159.093 36.2345 159.69 35.976 160.281C34.1374 164.481 31.0326 167.023 26.4153 167.6C19.3468 168.483 14.4876 163.587 12.9916 157.729C11.7176 152.74 12.7854 148.121 15.3943 143.786C15.7115 143.258 16.0509 142.744 16.429 142.147C14.5859 141.877 12.8685 141.691 11.1778 141.366C5.9208 140.355 1.10324 136.825 0.13529 130.991C-0.55552 126.827 1.43676 121.953 5.25218 119.408C10.5032 115.906 15.9885 116.123 21.5758 118.521C22.0224 118.713 22.4597 118.926 23.1174 119.229C22.9031 118.001 22.6665 116.978 22.5537 115.941C22.0356 111.18 22.5769 106.812 26.1586 103.08C29.9563 99.1217 37.8255 98.9749 41.9625 102.662C45.2193 105.564 46.9737 109.164 47.3005 113.496C47.3572 114.248 47.5305 114.991 47.6671 115.845C48.604 115.642 49.4654 115.446 50.3307 115.269C56.7535 113.958 62.7323 117.297 64.6397 123.523C65.8824 127.58 64.8051 131.31 62.2512 134.669C60.4174 137.08 57.9906 138.617 55.2509 139.752C55.0439 139.838 54.8381 139.929 54.6414 140.035C54.5699 140.074 54.5267 140.165 54.3188 140.414C57.448 143.014 59.7491 146.18 60.2858 150.478ZM40.1325 143.04C45.7768 139.605 46.423 131.926 41.2286 127.816C37.3961 124.783 30.849 125.229 27.8 130.126C25.6684 133.549 26.1645 138.117 28.4448 140.839C31.5842 144.587 36.9176 144.815 40.1325 143.04Z" fill="#FF88D3"/>
<path d="M110.792 55.5363C110.913 54.8801 111.06 54.2274 111.151 53.567C111.785 48.9664 114.477 45.9586 118.476 43.8778C120.537 42.8058 122.64 42.0006 124.979 41.8936C125.184 41.8842 125.384 41.7526 125.522 41.7013C124.335 39.8593 122.991 38.1513 122.052 36.2438C119.538 31.1372 119.246 25.8719 122.224 20.893C124.338 17.3596 127.507 15.0054 131.894 14.9698C136.537 14.9322 140.133 16.8901 142.622 20.827C143.003 21.4286 143.332 22.0624 143.708 22.7214C145.225 21.4107 146.547 19.9829 148.129 18.9556C152.866 15.8795 157.784 15.2325 162.835 18.3365C167.401 21.1423 169.477 27.8721 167.121 32.7227C166.149 34.7227 164.907 36.5912 163.713 38.648C166.96 39.4768 170.054 40.8289 172.612 43.5101C174.468 45.772 175.656 48.072 175.917 50.9101C176.357 55.6951 173.99 60.4441 169.608 62.4063C167.844 63.1961 165.837 63.4434 163.94 63.9376C162.652 63.82 161.364 63.7023 159.944 63.5726C159.991 64.89 160.114 66.122 160.065 67.3472C159.886 71.8191 158.403 75.7977 154.81 78.5864C148.237 83.6879 138.997 81.3901 136.116 72.9487C135.095 69.9592 134.927 66.8922 135.425 63.5457C133.844 64.3528 132.51 65.1218 131.107 65.7335C126.823 67.6017 122.498 67.7138 118.166 65.8548C118.005 65.7855 117.824 65.7614 117.496 65.6586C117.073 65.3664 116.829 65.0952 116.534 64.9031C114.543 63.6085 112.947 61.9613 112.097 59.7173C111.581 58.3543 111.221 56.932 110.792 55.5363ZM136.636 48.4602C136.828 48.9143 137.018 49.3691 137.212 49.8224C138.916 53.804 143.46 56.0936 147.629 55.1513C152.716 54.0017 156.069 48.3619 154.358 43.5204C153.186 40.2025 150.513 37.4752 146.991 37.0501C143.196 36.592 140.099 37.8697 137.945 41.1278C136.508 43.3023 136.169 45.6977 136.636 48.4602Z" fill="#FF88D3"/>
<path d="M84.2436 37.1042C84.9677 40.3451 84.8509 43.4318 83.4984 46.5002C85.4656 46.6466 87.2441 46.7156 89.0065 46.9225C93.5968 47.4615 98.4616 51.5035 99.4673 55.9699C101.077 63.1185 97.8075 69.0234 90.1497 70.9389C88.6083 71.3245 87.0032 71.4553 85.3501 71.7158C87.0854 74.6744 88.015 77.8579 87.8797 81.3321C87.6202 87.9975 82.0048 93.4782 75.3942 93.0891C71.225 92.8438 67.9655 90.5863 65.5275 87.1947C65.2185 86.7648 64.9159 86.3303 64.5086 85.754C63.5673 86.7348 62.8053 87.6979 61.8801 88.464C57.3072 92.2508 52.2426 93.6723 46.5752 91.1999C41.3467 88.919 39.1997 83.0156 39.8452 79.3148C40.5788 75.1088 42.8634 71.7569 46.1961 69.112C46.7575 68.6665 47.3189 68.221 47.8764 67.7707C47.8978 67.7533 47.8791 67.6863 47.8791 67.5424C44.6887 66.8994 41.7664 65.6042 39.2595 63.4476C35.364 60.0963 33.5422 55.9011 34.0979 50.7481C34.628 45.8327 39.7793 41.4372 44.6559 41.1815C49.4457 40.9305 53.3494 42.6055 56.8927 45.5608C57.0541 45.6954 57.2348 45.8069 57.5051 45.9992C57.9191 41.6235 59.2492 37.7511 61.99 34.4109C66.2498 29.2194 73.0603 27.5303 78.5934 30.3663C81.3799 31.7945 83.1719 34.0817 84.2436 37.1042ZM76.293 66.7724C77.4567 63.2858 76.9034 60.101 74.4884 57.3241C72.0826 54.5576 68.849 53.9444 65.4975 54.6153C60.3585 55.644 56.6852 61.7896 59.2559 67.2949C61.1965 71.451 65.5925 73.1479 68.2484 72.8103C71.912 72.3446 74.7147 70.4879 76.293 66.7724Z" fill="#FF88D3"/>
<path d="M180.914 120.276C179.24 123.144 177.055 125.327 173.976 126.656C175.318 128.101 176.575 129.361 177.726 130.712C180.723 134.23 181.539 140.502 179.238 144.46C175.555 150.794 169.141 152.898 162.226 149.093C160.833 148.327 159.568 147.331 158.179 146.397C157.438 149.746 155.954 152.712 153.491 155.166C148.767 159.875 140.923 160.072 136.342 155.29C133.453 152.273 132.6 148.401 133.12 144.257C133.186 143.732 133.26 143.207 133.353 142.508C131.996 142.586 130.783 142.774 129.583 142.706C123.656 142.371 118.976 139.967 116.504 134.3C114.224 129.071 116.666 123.284 119.657 121.01C123.056 118.426 127.011 117.524 131.253 117.853C131.967 117.908 132.682 117.963 133.397 118.012C133.424 118.014 133.456 117.953 133.554 117.847C131.653 115.205 130.392 112.268 130.022 108.982C129.447 103.876 130.965 99.5614 134.878 96.1625C138.61 92.9203 145.376 93.2031 149.125 96.3332C152.806 99.4076 154.528 103.291 155.114 107.867C155.141 108.076 155.198 108.281 155.265 108.605C158.545 105.68 162.154 103.746 166.435 103.163C173.089 102.256 179.23 105.651 181.356 111.493C182.427 114.436 182.185 117.331 180.914 120.276ZM154.904 136.612C158.129 134.848 159.89 132.138 160.009 128.459C160.127 124.795 158.174 122.146 155.261 120.358C150.795 117.616 143.922 119.621 142.061 125.405C140.656 129.771 142.724 134.006 144.9 135.565C147.902 137.716 151.219 138.262 154.904 136.612Z" fill="#FF88D3"/>
<path d="M153.311 79.6925C153.237 77.7709 153.515 75.768 153.206 73.86C152.44 69.1198 148.461 65.6094 143.724 64.8018C140.914 64.3229 138.386 64.878 135.784 66.0278C135.687 65.0987 135.687 64.1312 135.687 62.9931C132.938 65.202 129.796 66.2049 126.463 66.6142C121.956 67.1677 116.594 65.4058 113.852 61.4112C110.764 56.9117 110.774 51.6375 113.926 47.4226C116.546 43.9177 120.355 42.3458 124.563 41.6257C125.005 41.55 125.446 41.4628 125.883 41.3618C126.042 41.3251 126.187 41.2326 126.212 41.2218C124.988 39.1873 123.663 37.2725 122.631 35.2111C119.944 29.8462 120.81 22.7227 124.512 18.6C130.096 12.3821 139.832 13.592 143.872 21.0071C144.15 21.5162 144.414 22.0327 144.652 22.4845C146.516 20.9997 148.179 19.3111 150.157 18.1656C157.367 13.99 166.863 16.82 168.76 25.7266C169.686 30.0728 168.181 33.8726 165.371 37.2046C165.033 37.6048 164.723 38.0286 164.265 38.6146C165.201 38.9277 165.958 39.1503 166.692 39.4318C172.676 41.7256 176.395 45.7735 176.72 52.5408C176.224 54.3128 175.875 56.0358 175.212 57.6273C174.277 59.8688 172.418 61.3295 170.316 62.6206C167.107 64.0099 163.836 64.1237 160.379 63.6084C160.918 70.2613 159.386 75.9516 153.311 79.6925ZM149.312 37.2413C146.639 36.3415 144.029 36.575 141.648 38.0236C136.401 41.2156 135.374 48.3775 140.04 52.648C142.77 55.1463 145.884 55.8319 149.276 54.6281C153.002 53.306 155.148 50.5169 155.384 46.5346C155.645 42.115 153.518 39.0866 149.312 37.2413Z" fill="#FF88D3"/>
</svg>
