<svg width="304" height="392" viewBox="0 0 304 392" fill="none" xmlns="http://www.w3.org/2000/svg">
<g clip-path="url(#clip0_1_49)">
<path d="M175.611 237.371V209.546C175.611 198.576 166.686 189.65 155.715 189.65C144.744 189.65 135.819 198.576 135.819 209.546V234.668C135.819 264.942 124.666 294.008 104.413 316.51L76.4895 347.536C74.1435 350.143 74.3551 354.158 76.962 356.505C79.568 358.851 83.5828 358.639 85.9297 356.033L113.853 325.006C136.207 300.167 148.518 268.085 148.518 234.668V209.546C148.518 205.578 151.747 202.35 155.715 202.35C159.683 202.35 162.912 205.578 162.912 209.546V237.371C162.912 274.626 149.11 310.324 124.049 337.891L96.8304 367.832C94.4716 370.426 94.6629 374.444 97.2579 376.803C98.4746 377.909 100.003 378.454 101.527 378.454C103.254 378.454 104.974 377.753 106.227 376.375L133.446 346.434C160.637 316.524 175.611 277.792 175.611 237.371Z" fill="#003666"/>
<path d="M202.704 209.546C202.704 183.636 181.625 162.557 155.715 162.557C129.805 162.557 108.726 183.636 108.726 209.546V234.668C108.726 258.238 100.043 280.867 84.2754 298.386L64.4239 320.443C62.0778 323.05 62.2895 327.065 64.8963 329.412C67.5032 331.758 71.5172 331.545 73.8641 328.94L93.7155 306.882C111.585 287.027 121.426 261.381 121.426 234.668V209.546C121.426 190.639 136.808 175.257 155.716 175.257C174.623 175.257 190.005 190.639 190.005 209.546V237.371C190.005 281.379 173.702 323.551 144.097 356.115L121.132 381.379C118.772 383.973 118.964 387.99 121.559 390.349C122.775 391.456 124.303 392 125.827 392C127.555 392 129.275 391.3 130.528 389.921L153.494 364.658C185.228 329.751 202.704 284.546 202.704 237.371V209.546Z" fill="#00294D"/>
<path d="M229.797 209.546C229.797 168.697 196.564 135.464 155.715 135.464C114.866 135.464 81.633 168.697 81.633 209.546V234.668C81.633 251.534 75.4194 267.726 64.1369 280.261L46.2624 300.122C43.9163 302.729 44.128 306.744 46.7348 309.091C49.3408 311.437 53.3565 311.223 55.7025 308.618L73.5771 288.758C86.9618 273.886 94.3327 254.676 94.3327 234.668V209.546C94.3327 175.7 121.868 148.164 155.715 148.164C189.562 148.164 217.097 175.7 217.097 209.546V237.371C217.097 288.134 198.291 336.778 164.143 374.34L157.788 381.331C155.429 383.926 155.62 387.943 158.215 390.302C159.432 391.407 160.961 391.953 162.484 391.953C164.211 391.953 165.932 391.252 167.185 389.874L173.54 382.882C209.817 342.977 229.796 291.301 229.796 237.371V209.546H229.797Z" fill="#004480"/>
<path d="M54.5401 209.546C54.5401 213.054 57.3831 215.896 60.89 215.896C64.3968 215.896 67.2399 213.054 67.2399 209.546C67.2399 188.164 75.0028 167.509 89.0996 151.386C103.065 135.412 122.232 124.966 143.07 121.972C146.542 121.473 148.951 118.254 148.452 114.784C147.954 111.313 144.732 108.907 141.264 109.402C117.423 112.827 95.5011 124.769 79.5383 143.027C63.4181 161.465 54.5401 185.089 54.5401 209.546Z" fill="#00294D"/>
<path d="M67.2399 234.668C67.2399 231.161 64.3968 228.318 60.89 228.318C57.3831 228.318 54.5401 231.161 54.5401 234.668C54.5401 244.83 50.797 254.584 44.0001 262.136L28.1008 279.803C25.7547 282.409 25.9664 286.424 28.5733 288.771C29.7873 289.863 31.3054 290.401 32.8192 290.401C34.5565 290.401 36.2879 289.691 37.541 288.299L53.4403 270.632C62.3386 260.744 67.2399 247.973 67.2399 234.668Z" fill="#004D66"/>
<path d="M244.426 291.352C241.032 290.469 237.564 292.496 236.675 295.888C234.331 304.845 231.415 313.749 228.006 322.353C226.714 325.613 228.31 329.304 231.57 330.595C232.338 330.899 233.129 331.043 233.908 331.043C236.435 331.043 238.825 329.523 239.813 327.03C243.41 317.95 246.488 308.555 248.962 299.103C249.849 295.711 247.818 292.241 244.426 291.352Z" fill="#003666"/>
<path d="M223.291 134.306C220.682 131.96 216.667 132.175 214.323 134.783C211.978 137.39 212.192 141.405 214.799 143.75C233.477 160.54 244.189 184.522 244.189 209.546V237.371C244.189 247.931 243.461 258.573 242.024 269.001C241.546 272.476 243.974 275.679 247.448 276.158C247.742 276.198 248.034 276.218 248.323 276.218C251.445 276.218 254.167 273.913 254.605 270.733C256.12 259.733 256.889 248.508 256.889 237.37V209.546C256.89 180.925 244.643 153.501 223.291 134.306Z" fill="#00294D"/>
<path d="M193.605 129.602C194.487 130.022 195.415 130.22 196.331 130.22C198.704 130.22 200.98 128.883 202.068 126.598C203.576 123.433 202.231 119.643 199.065 118.136C189.916 113.78 180.193 110.841 170.164 109.401C166.688 108.906 163.475 111.313 162.976 114.783C162.477 118.254 164.887 121.473 168.358 121.971C177.119 123.23 185.613 125.797 193.605 129.602Z" fill="#005299"/>
<path d="M155.715 81.2786C153.339 81.2786 150.937 81.3447 148.572 81.475C145.07 81.6681 142.388 84.6635 142.581 88.1644C142.775 91.6662 145.767 94.3628 149.271 94.1545C151.404 94.0368 153.571 93.9776 155.714 93.9776C219.438 93.9776 271.282 145.821 271.282 209.546V237.37C271.282 240.878 274.125 243.72 277.632 243.72C281.139 243.72 283.982 240.878 283.982 237.37V209.546C283.983 138.82 226.442 81.2786 155.715 81.2786Z" fill="#00294D"/>
<path d="M86.2862 115.731C87.5367 115.731 88.8007 115.362 89.9056 114.594C100.47 107.248 112.073 101.763 124.392 98.2896C127.768 97.3379 129.733 93.8294 128.781 90.4546C127.83 87.0799 124.32 85.1173 120.946 86.0656C107.265 89.9229 94.3819 96.0129 82.6557 104.166C79.7763 106.168 79.0651 110.126 81.0674 113.004C82.301 114.781 84.2771 115.731 86.2862 115.731Z" fill="#004480"/>
<path d="M40.147 234.668V209.546C40.147 180.007 51.3338 151.874 71.6467 130.329C74.052 127.778 73.9344 123.759 71.3825 121.353C68.8307 118.947 64.8117 119.066 62.4063 121.617C39.8625 145.528 27.4472 176.756 27.4472 209.546V234.668C27.4472 238.125 26.1738 241.443 23.8625 244.011L16.0327 252.71C13.6866 255.317 13.8982 259.332 16.5051 261.678C17.7183 262.771 19.2372 263.309 20.751 263.309C22.4884 263.309 24.2189 262.6 25.4728 261.207L33.3027 252.508C37.7163 247.603 40.147 241.267 40.147 234.668Z" fill="#00294D"/>
<path d="M303.011 160.105C296.047 139.408 284.979 120.71 270.114 104.529C267.741 101.947 263.724 101.776 261.142 104.149C258.56 106.522 258.389 110.539 260.762 113.122C274.416 127.984 284.581 145.154 290.975 164.155C291.868 166.807 294.342 168.481 296.993 168.481C297.664 168.481 298.347 168.374 299.019 168.148C302.342 167.029 304.13 163.428 303.011 160.105Z" fill="#003666"/>
<path d="M205.897 62.5016C202.581 61.3662 198.969 63.1349 197.833 66.4537C196.698 69.7718 198.468 73.3819 201.786 74.5164C215.788 79.3076 228.934 86.2485 240.859 95.1485C241.999 95.9994 243.331 96.4091 244.652 96.4091C246.587 96.4091 248.499 95.5278 249.746 93.8565C251.844 91.0464 251.265 87.0672 248.455 84.97C235.47 75.2809 221.151 67.7203 205.897 62.5016Z" fill="#00294D"/>
<path d="M57.0513 106.6C83.7623 80.9899 118.802 66.8855 155.715 66.8855C162.57 66.8855 169.462 67.3791 176.201 68.3511C179.674 68.8574 182.892 66.4444 183.393 62.9731C183.894 59.5019 181.487 56.2829 178.016 55.7817C170.677 54.7234 163.174 54.1857 155.715 54.1857C115.51 54.1857 77.3489 69.5449 48.2622 97.4336C19.266 125.236 2.30842 162.545 0.513512 202.49C0.356035 205.993 3.06871 208.961 6.57131 209.118C6.66867 209.123 6.76519 209.125 6.86171 209.125C10.2373 209.125 13.0474 206.466 13.2006 203.06C14.8473 166.39 30.4207 132.134 57.0513 106.6Z" fill="#00294D"/>
<path d="M155.715 27.0929C141.515 27.0929 127.365 28.7388 113.658 31.9848C110.246 32.7925 108.135 36.2147 108.943 39.6267C109.751 43.0387 113.173 45.1503 116.585 44.3417C129.334 41.3243 142.499 39.7927 155.715 39.7927C202.278 39.7927 245.741 58.3437 278.099 92.0269C279.346 93.3248 281.01 93.9784 282.679 93.9784C284.261 93.9784 285.846 93.3908 287.077 92.208C289.606 89.7782 289.688 85.7583 287.258 83.2302C270.398 65.6799 250.594 51.8735 228.397 42.1972C205.405 32.1745 180.951 27.0929 155.715 27.0929Z" fill="#004480"/>
<path d="M13.0804 106.174C14.242 107.083 15.6212 107.524 16.9911 107.524C18.8766 107.524 20.7426 106.688 21.9948 105.089C40.092 81.9737 63.9168 63.8427 90.8928 52.6541C94.1321 51.3105 95.6696 47.5954 94.326 44.3561C92.9823 41.1168 89.2655 39.5776 86.0279 40.9229C57.0377 52.9462 31.4375 72.4269 11.9958 97.2583C9.83346 100.021 10.3194 104.012 13.0804 106.174Z" fill="#005299"/>
<path d="M67.6691 32.7866C68.5954 32.7866 69.536 32.5834 70.425 32.1533C97.1606 19.2444 125.856 12.6998 155.715 12.6998C171.275 12.6998 186.772 14.5302 201.774 18.1404C205.182 18.9582 208.612 16.8619 209.433 13.4525C210.253 10.043 208.154 6.6132 204.744 5.79279C188.771 1.94899 172.275 0 155.715 0C123.928 0 93.3752 6.96964 64.904 20.7167C61.7459 22.2416 60.4218 26.0379 61.9466 29.196C63.0413 31.4641 65.3087 32.7866 67.6691 32.7866Z" fill="#004480"/>
<path d="M228.314 26.5705C234.86 29.1773 241.34 32.1745 247.572 35.4773C248.519 35.9802 249.537 36.2181 250.539 36.2181C252.815 36.2181 255.016 34.9913 256.155 32.8399C257.797 29.7412 256.617 25.8982 253.518 24.2557C246.883 20.7396 239.983 17.5486 233.012 14.7724C229.753 13.4745 226.061 15.0645 224.763 18.3216C223.466 21.5795 225.056 25.2734 228.314 26.5705Z" fill="#00294D"/>
</g>
<defs>
<clipPath id="clip0_1_49">
<rect width="304" height="392" fill="white"/>
</clipPath>
</defs>
</svg>
