<svg width="304" height="392" viewBox="0 0 304 392" fill="none" xmlns="http://www.w3.org/2000/svg">
<g clip-path="url(#clip0_2_96)">
<path d="M175.616 237.371V209.546C175.616 198.575 166.69 189.65 155.719 189.65C144.748 189.65 135.823 198.575 135.823 209.546V234.668C135.823 264.942 124.67 294.008 104.417 316.51L76.4932 347.536C74.1471 350.143 74.3587 354.158 76.9656 356.505C79.5716 358.851 83.5865 358.639 85.9334 356.033L113.857 325.006C136.211 300.167 148.523 268.085 148.523 234.668V209.546C148.523 205.578 151.751 202.35 155.719 202.35C159.688 202.35 162.916 205.578 162.916 209.546V237.371C162.916 274.626 149.114 310.324 124.053 337.891L96.8341 367.832C94.4753 370.426 94.6667 374.444 97.2617 376.803C98.4783 377.909 100.007 378.454 101.531 378.454C103.258 378.454 104.978 377.753 106.231 376.375L133.45 346.434C160.641 316.524 175.616 277.792 175.616 237.371Z" fill="#0099CC"/>
<path d="M202.709 209.546C202.709 183.636 181.63 162.557 155.719 162.557C129.809 162.557 108.73 183.636 108.73 209.546V234.668C108.73 258.238 100.046 280.867 84.279 298.386L64.4274 320.444C62.0813 323.05 62.293 327.065 64.8999 329.412C67.5067 331.758 71.5207 331.545 73.8677 328.94L93.7193 306.882C111.589 287.027 121.43 261.381 121.43 234.668V209.546C121.43 190.639 136.813 175.257 155.72 175.257C174.628 175.257 190.01 190.639 190.01 209.546V237.371C190.01 281.379 173.707 323.551 144.101 356.116L121.136 381.379C118.776 383.973 118.967 387.99 121.563 390.349C122.779 391.456 124.307 392 125.831 392C127.559 392 129.279 391.3 130.532 389.921L153.498 364.658C185.232 329.751 202.709 284.546 202.709 237.371V209.546Z" fill="#269BFF"/>
<path d="M229.802 209.546C229.802 168.697 196.569 135.464 155.719 135.464C114.87 135.464 81.6366 168.697 81.6366 209.546V234.668C81.6366 251.534 75.423 267.726 64.1404 280.261L46.2657 300.122C43.9196 302.729 44.1313 306.744 46.7382 309.091C49.3442 311.437 53.3599 311.223 55.706 308.618L73.5806 288.758C86.9655 273.886 94.3365 254.676 94.3365 234.668V209.546C94.3365 175.7 121.872 148.164 155.719 148.164C189.566 148.164 217.102 175.7 217.102 209.546V237.371C217.102 288.134 198.296 336.778 164.148 374.34L157.792 381.331C155.433 383.926 155.624 387.943 158.219 390.302C159.436 391.407 160.965 391.953 162.488 391.953C164.215 391.953 165.936 391.252 167.189 389.874L173.544 382.882C209.822 342.977 229.801 291.301 229.801 237.371V209.546H229.802Z" fill="#66B8FF"/>
<path d="M54.5435 209.546C54.5435 213.054 57.3866 215.896 60.8935 215.896C64.4003 215.896 67.2434 213.054 67.2434 209.546C67.2434 188.164 75.0064 167.509 89.1033 151.386C103.069 135.412 122.236 124.966 143.074 121.972C146.546 121.473 148.955 118.254 148.457 114.784C147.958 111.313 144.736 108.907 141.268 109.402C117.427 112.827 95.5049 124.769 79.542 143.028C63.4216 161.465 54.5435 185.089 54.5435 209.546Z" fill="#269BFF"/>
<path d="M67.2434 234.668C67.2434 231.161 64.4003 228.318 60.8935 228.318C57.3866 228.318 54.5435 231.161 54.5435 234.668C54.5435 244.83 50.8004 254.584 44.0035 262.136L28.1041 279.803C25.758 282.409 25.9696 286.424 28.5765 288.771C29.7906 289.863 31.3087 290.401 32.8225 290.401C34.5598 290.401 36.2913 289.691 37.5443 288.299L53.4437 270.632C62.3421 260.744 67.2434 247.973 67.2434 234.668Z" fill="#0099CC"/>
<path d="M244.431 291.353C241.037 290.469 237.569 292.496 236.68 295.888C234.336 304.845 231.42 313.749 228.01 322.353C226.718 325.613 228.314 329.304 231.575 330.595C232.343 330.899 233.134 331.043 233.912 331.043C236.44 331.043 238.83 329.523 239.818 327.03C243.415 317.95 246.493 308.555 248.967 299.103C249.854 295.711 247.823 292.241 244.431 291.353Z" fill="#0099CC"/>
<path d="M223.295 134.306C220.687 131.96 216.672 132.175 214.328 134.783C211.983 137.39 212.196 141.405 214.804 143.75C233.482 160.54 244.194 184.522 244.194 209.546V237.371C244.194 247.931 243.466 258.573 242.029 269.001C241.551 272.476 243.979 275.679 247.453 276.158C247.747 276.198 248.039 276.218 248.328 276.218C251.45 276.218 254.172 273.913 254.61 270.733C256.125 259.733 256.894 248.508 256.894 237.37V209.546C256.895 180.925 244.648 153.501 223.295 134.306Z" fill="#269BFF"/>
<path d="M193.61 129.602C194.491 130.022 195.42 130.22 196.335 130.22C198.708 130.22 200.985 128.883 202.073 126.598C203.581 123.433 202.236 119.643 199.07 118.136C189.921 113.78 180.197 110.841 170.168 109.401C166.692 108.906 163.479 111.313 162.98 114.783C162.482 118.254 164.891 121.473 168.362 121.971C177.124 123.23 185.617 125.797 193.61 129.602Z" fill="#00ACE6"/>
<path d="M155.719 81.2786C153.344 81.2786 150.941 81.3447 148.576 81.4751C145.074 81.6681 142.392 84.6635 142.585 88.1645C142.779 91.6662 145.771 94.3628 149.275 94.1545C151.408 94.0368 153.576 93.9776 155.718 93.9776C219.443 93.9776 271.287 145.821 271.287 209.546V237.37C271.287 240.878 274.13 243.72 277.637 243.72C281.144 243.72 283.987 240.878 283.987 237.37V209.546C283.988 138.82 226.447 81.2786 155.719 81.2786Z" fill="#269BFF"/>
<path d="M86.2898 115.731C87.5404 115.731 88.8044 115.362 89.9093 114.594C100.474 107.248 112.077 101.763 124.396 98.2896C127.772 97.3379 129.737 93.8294 128.785 90.4546C127.834 87.0799 124.324 85.1174 120.95 86.0656C107.268 89.9229 94.3856 96.0129 82.6594 104.166C79.7799 106.169 79.0687 110.126 81.071 113.004C82.3046 114.781 84.2807 115.731 86.2898 115.731Z" fill="#0099CC"/>
<path d="M40.1503 234.668V209.546C40.1503 180.007 51.3372 151.874 71.6503 130.329C74.0556 127.778 73.9379 123.759 71.3861 121.353C68.8343 118.947 64.8152 119.066 62.4098 121.617C39.8658 145.528 27.4504 176.756 27.4504 209.546V234.668C27.4504 238.125 26.1771 241.443 23.8657 244.011L16.0358 252.71C13.6897 255.317 13.9014 259.332 16.5082 261.678C17.7215 262.771 19.2404 263.309 20.7542 263.309C22.4916 263.309 24.2221 262.6 25.476 261.207L33.3059 252.508C37.7196 247.603 40.1503 241.267 40.1503 234.668Z" fill="#269BFF"/>
<path d="M303.017 160.105C296.052 139.408 284.984 120.71 270.119 104.529C267.746 101.947 263.729 101.776 261.147 104.149C258.565 106.522 258.394 110.539 260.767 113.122C274.421 127.984 284.587 145.154 290.981 164.155C291.873 166.807 294.347 168.481 296.998 168.481C297.669 168.481 298.353 168.374 299.024 168.148C302.347 167.029 304.135 163.428 303.017 160.105Z" fill="#66B8FF"/>
<path d="M205.902 62.5016C202.585 61.3662 198.973 63.1349 197.838 66.4537C196.703 69.7718 198.472 73.3819 201.79 74.5164C215.792 79.3076 228.938 86.2485 240.864 95.1485C242.004 95.9994 243.336 96.4091 244.657 96.4091C246.592 96.4091 248.504 95.5278 249.751 93.8565C251.849 91.0464 251.27 87.0672 248.46 84.97C235.475 75.2809 221.156 67.7203 205.902 62.5016Z" fill="#269BFF"/>
<path d="M57.0547 106.6C83.766 80.9899 118.806 66.8855 155.719 66.8855C162.574 66.8855 169.466 67.3791 176.205 68.3511C179.679 68.8574 182.896 66.4444 183.397 62.9731C183.899 59.5019 181.492 56.2829 178.02 55.7817C170.681 54.7234 163.178 54.1857 155.719 54.1857C115.514 54.1857 77.3525 69.5449 48.2655 97.4336C19.2692 125.236 2.31144 162.545 0.516526 202.49C0.359047 205.993 3.07174 208.961 6.57437 209.118C6.67174 209.123 6.76825 209.125 6.86477 209.125C10.2404 209.125 13.0505 206.466 13.2037 203.06C14.8505 166.39 30.4239 132.134 57.0547 106.6Z" fill="#269BFF"/>
<path d="M155.719 27.0929C141.519 27.0929 127.369 28.7388 113.662 31.9848C110.249 32.7925 108.139 36.2147 108.946 39.6267C109.755 43.0387 113.177 45.1503 116.589 44.3417C129.338 41.3242 142.503 39.7926 155.719 39.7926C202.282 39.7926 245.746 58.3436 278.104 92.0269C279.351 93.3248 281.015 93.9784 282.684 93.9784C284.267 93.9784 285.852 93.3908 287.083 92.208C289.612 89.7781 289.693 85.7582 287.263 83.2301C270.403 65.6799 250.599 51.8735 228.402 42.1971C205.41 32.1745 180.956 27.0929 155.719 27.0929Z" fill="#66B8FF"/>
<path d="M13.0835 106.174C14.2451 107.083 15.6243 107.524 16.9942 107.524C18.8797 107.524 20.7457 106.688 21.998 105.089C40.0953 81.9737 63.9203 63.8427 90.8965 52.6541C94.1358 51.3105 95.6734 47.5954 94.3297 44.3561C92.9861 41.1168 89.2692 39.5776 86.0316 40.9229C57.0412 52.9462 31.4407 72.4269 11.9989 97.2583C9.83654 100.021 10.3225 104.012 13.0835 106.174Z" fill="#00ACE6"/>
<path d="M67.6727 32.7866C68.5989 32.7866 69.5396 32.5834 70.4285 32.1533C97.1643 19.2444 125.86 12.6998 155.719 12.6998C171.279 12.6998 186.776 14.5302 201.778 18.1404C205.186 18.9582 208.617 16.8619 209.437 13.4525C210.258 10.043 208.159 6.6132 204.748 5.7928C188.775 1.94899 172.279 0 155.719 0C123.932 0 93.3789 6.96964 64.9075 20.7167C61.7494 22.2416 60.4253 26.0379 61.9501 29.196C63.0448 31.4641 65.3122 32.7866 67.6727 32.7866Z" fill="#269BFF"/>
<path d="M228.319 26.5705C234.865 29.1774 241.344 32.1745 247.577 35.4773C248.524 35.9802 249.542 36.2181 250.544 36.2181C252.82 36.2181 255.021 34.9913 256.16 32.84C257.802 29.7412 256.622 25.8983 253.523 24.2558C246.888 20.7396 239.988 17.5486 233.017 14.7724C229.758 13.4745 226.066 15.0645 224.768 18.3216C223.471 21.5795 225.061 25.2734 228.319 26.5705Z" fill="#0099CC"/>
</g>
<defs>
<clipPath id="clip0_2_96">
<rect width="304" height="392" fill="white"/>
</clipPath>
</defs>
</svg>
