<svg width="455" height="455" viewBox="0 0 455 455" fill="none" xmlns="http://www.w3.org/2000/svg">
<g clip-path="url(#clip0_1_2)">
<path d="M342.337 98.9C342.306 98.863 342.28 98.824 342.247 98.787C341.802 98.283 341.301 97.861 340.766 97.506C310.441 71.049 270.811 55 227.5 55C184.189 55 144.559 71.049 114.233 97.507C113.699 97.862 113.198 98.284 112.753 98.788C112.721 98.824 112.695 98.864 112.663 98.901C77.301 130.512 55 176.447 55 227.5C55 278.553 77.301 324.488 112.663 356.1C112.694 356.137 112.72 356.176 112.753 356.213C113.198 356.717 113.699 357.139 114.234 357.494C144.559 383.951 184.189 400 227.5 400C270.815 400 310.448 383.948 340.775 357.486C341.306 357.132 341.805 356.713 342.247 356.212C342.279 356.176 342.305 356.136 342.337 356.099C377.699 324.488 400 278.553 400 227.5C400 176.447 377.699 130.512 342.337 98.9ZM317.414 220C316.746 189.348 311.99 160.109 303.666 134.773C315.253 129.068 326.228 122.045 336.366 113.789C364.633 140.862 382.855 178.339 384.818 220H317.414ZM292.544 107.473C286.252 94.889 279.104 84.412 271.321 76.209C291.023 81.925 309.147 91.389 324.861 103.782C316.6 110.286 307.757 115.911 298.471 120.601C296.621 116.06 294.646 111.676 292.544 107.473ZM284.769 126.718C268.966 132.887 252.172 136.503 235 137.319V70.822C251.318 74.375 266.764 89.453 279.128 114.182C281.13 118.186 283.009 122.374 284.769 126.718ZM156.528 120.602C147.242 115.912 138.399 110.287 130.138 103.783C145.852 91.39 163.976 81.926 183.678 76.21C175.895 84.412 168.747 94.89 162.455 107.474C160.354 111.676 158.379 116.06 156.528 120.602ZM175.872 114.182C188.236 89.453 203.682 74.375 220 70.822V137.319C202.829 136.503 186.034 132.887 170.231 126.718C171.991 122.374 173.87 118.186 175.872 114.182ZM220 152.334V220H152.588C153.235 191.464 157.569 164.332 165.128 140.828C182.553 147.586 201.072 151.512 220 152.334ZM220 235V302.666C201.072 303.487 182.553 307.414 165.127 314.172C157.568 290.667 153.234 263.536 152.587 235H220V235ZM220 317.681V384.178C203.682 380.625 188.236 365.547 175.872 340.818C173.87 336.813 171.991 332.626 170.231 328.282C186.034 322.113 202.829 318.497 220 317.681ZM162.456 347.527C168.748 360.111 175.896 370.588 183.679 378.791C163.977 373.075 145.853 363.611 130.139 351.218C138.4 344.714 147.243 339.089 156.529 334.399C158.379 338.94 160.354 343.324 162.456 347.527ZM298.472 334.398C307.758 339.088 316.601 344.713 324.862 351.217C309.148 363.61 291.024 373.074 271.322 378.79C279.105 370.588 286.253 360.11 292.545 347.526C294.646 343.324 296.621 338.94 298.472 334.398ZM279.128 340.818C266.764 365.547 251.318 380.625 235 384.178V317.681C252.171 318.497 268.966 322.113 284.769 328.282C283.009 332.626 281.13 336.814 279.128 340.818ZM235 302.666V235H302.412C301.765 263.536 297.431 290.667 289.872 314.172C272.447 307.414 253.928 303.488 235 302.666ZM235 220V152.334C253.928 151.513 272.447 147.586 289.873 140.828C297.432 164.333 301.766 191.464 302.413 220H235ZM118.635 113.789C128.773 122.045 139.748 129.068 151.335 134.773C143.011 160.109 138.255 189.348 137.587 220H70.183C72.146 178.339 90.368 140.862 118.635 113.789ZM70.183 235H137.586C138.254 265.652 143.01 294.891 151.334 320.227C139.747 325.932 128.772 332.955 118.634 341.211C90.368 314.138 72.146 276.661 70.183 235ZM336.365 341.211C326.227 332.955 315.252 325.932 303.665 320.227C311.989 294.891 316.745 265.652 317.413 235H384.816C382.854 276.661 364.632 314.138 336.365 341.211Z" fill="#4148A4"/>
<path d="M390.54 382.565C390.536 382.508 390.537 382.451 390.532 382.394C390.507 382.115 390.466 381.837 390.41 381.561C390.399 381.508 390.383 381.456 390.371 381.402C390.32 381.179 390.26 380.958 390.189 380.739C390.165 380.667 390.139 380.595 390.114 380.524C390.041 380.32 389.958 380.119 389.866 379.92C389.836 379.856 389.808 379.791 389.777 379.728C389.662 379.497 389.536 379.27 389.395 379.049C389.381 379.027 389.369 379.003 389.355 378.981C389.197 378.739 389.024 378.504 388.835 378.277C388.826 378.266 388.819 378.253 388.809 378.242C388.772 378.198 388.73 378.162 388.692 378.119C388.586 377.998 388.483 377.875 388.367 377.759C388.328 377.72 388.286 377.688 388.246 377.65C388.174 377.581 388.1 377.517 388.026 377.451C387.877 377.319 387.724 377.194 387.568 377.075C387.499 377.023 387.43 376.971 387.359 376.921C387.167 376.786 386.97 376.662 386.768 376.548C386.727 376.525 386.689 376.499 386.648 376.477C386.136 376.198 385.598 375.984 385.046 375.834C384.988 375.818 384.929 375.806 384.87 375.791C384.653 375.738 384.435 375.693 384.216 375.659C384.139 375.647 384.063 375.635 383.986 375.626C383.759 375.598 383.532 375.581 383.304 375.574C383.247 375.572 383.19 375.566 383.132 375.566C382.849 375.564 382.567 375.577 382.285 375.606C382.27 375.608 382.255 375.606 382.24 375.608L345.57 379.663C341.453 380.118 338.485 383.825 338.94 387.942C339.396 392.059 343.11 395.029 347.219 394.572L360.688 393.083C277.318 460.242 154.62 455.141 77.24 377.76C37.104 337.624 15 284.261 15 227.5C15 223.358 11.642 220 7.5 220C3.358 220 0 223.358 0 227.5C0 288.267 23.664 345.397 66.633 388.366C109.602 431.335 166.733 455 227.5 455C279.336 455 328.516 437.769 368.527 406.037L365.505 416.366C364.342 420.342 366.622 424.508 370.597 425.671C371.301 425.877 372.01 425.975 372.707 425.975C375.953 425.975 378.944 423.851 379.902 420.579L390.247 385.223C390.252 385.205 390.257 385.188 390.262 385.17V385.169C390.341 384.899 390.4 384.625 390.448 384.349C390.462 384.266 390.472 384.183 390.484 384.1C390.512 383.901 390.532 383.702 390.543 383.502C390.548 383.411 390.554 383.32 390.556 383.229C390.561 383.007 390.554 382.786 390.54 382.565Z" fill="#7F84CC"/>
<path d="M388.367 66.633C345.397 23.664 288.267 0 227.5 0C175.664 0 126.484 17.231 86.473 48.963L89.495 38.634C90.658 34.658 88.378 30.492 84.403 29.329C80.425 28.167 76.261 30.446 75.098 34.421L64.754 69.777C64.749 69.795 64.744 69.812 64.739 69.83V69.831C64.66 70.101 64.601 70.375 64.553 70.651C64.539 70.734 64.529 70.817 64.517 70.9C64.489 71.099 64.469 71.299 64.458 71.499C64.453 71.59 64.447 71.68 64.445 71.771C64.44 71.993 64.446 72.214 64.461 72.435C64.465 72.492 64.464 72.549 64.469 72.606C64.494 72.885 64.535 73.163 64.591 73.438C64.602 73.492 64.618 73.544 64.63 73.597C64.68 73.82 64.741 74.041 64.812 74.259C64.836 74.332 64.862 74.403 64.888 74.475C64.961 74.679 65.044 74.88 65.136 75.078C65.166 75.142 65.193 75.206 65.225 75.269C65.34 75.5 65.466 75.727 65.606 75.947C65.62 75.97 65.632 75.994 65.647 76.017C65.805 76.259 65.978 76.494 66.167 76.721C66.176 76.732 66.183 76.745 66.193 76.756C66.243 76.816 66.301 76.868 66.353 76.926C66.447 77.03 66.535 77.138 66.635 77.238C66.657 77.26 66.682 77.279 66.705 77.301C66.783 77.377 66.866 77.447 66.947 77.52C67.067 77.627 67.186 77.733 67.311 77.831C67.39 77.893 67.471 77.95 67.552 78.008C67.689 78.107 67.827 78.203 67.968 78.291C68.045 78.339 68.123 78.384 68.202 78.429C68.354 78.516 68.507 78.599 68.663 78.675C68.741 78.713 68.82 78.749 68.9 78.785C69.06 78.856 69.222 78.92 69.386 78.98C69.469 79.01 69.551 79.04 69.635 79.067C69.799 79.12 69.965 79.165 70.132 79.206C70.219 79.228 70.305 79.251 70.393 79.27C70.566 79.306 70.741 79.333 70.916 79.357C70.999 79.368 71.08 79.384 71.164 79.393C71.407 79.418 71.652 79.432 71.896 79.433C71.91 79.433 71.923 79.435 71.936 79.435C71.945 79.435 71.954 79.434 71.963 79.434C72.213 79.433 72.463 79.418 72.713 79.393C72.729 79.391 72.745 79.392 72.762 79.39L109.432 75.335C113.549 74.88 116.517 71.173 116.062 67.056C115.606 62.939 111.895 59.977 107.783 60.426L94.314 61.915C177.682 -5.242 300.38 -0.140999 377.76 77.24C417.896 117.376 440 170.74 440 227.5C440 231.642 443.358 235 447.5 235C451.642 235 455 231.642 455 227.5C455 166.732 431.336 109.603 388.367 66.633Z" fill="#7F84CC"/>
</g>
<defs>
<clipPath id="clip0_1_2">
<rect width="455" height="455" fill="white"/>
</clipPath>
</defs>
</svg>
