<svg width="512" height="395" viewBox="0 0 512 395" fill="none" xmlns="http://www.w3.org/2000/svg">
<g clip-path="url(#clip0_2_84)">
<path d="M453.185 391.626H58.815C27.7647 391.626 2.5 366.362 2.5 335.312V58.815C2.5 27.7647 27.7647 2.5 58.815 2.5H453.185C484.235 2.5 509.5 27.7647 509.5 58.815V167.869C509.5 174.55 504.083 179.966 497.403 179.966C490.724 179.966 485.306 174.55 485.306 167.869V58.815C485.306 41.1013 470.899 26.694 453.185 26.694H58.815C41.1013 26.694 26.694 41.1013 26.694 58.815V335.312C26.694 353.026 41.1013 367.433 58.815 367.433H453.185C470.899 367.433 485.306 353.026 485.306 335.312V260.563C485.306 253.882 490.724 248.466 497.403 248.466C504.083 248.466 509.5 253.882 509.5 260.563V335.312C509.5 366.362 484.235 391.626 453.185 391.626Z" fill="#507C5C" stroke="#283E2E" stroke-width="5"/>
<path d="M222.67 331.357H76.698C68.637 331.357 62.101 324.822 62.101 316.76V259.593C62.101 218.677 95.388 185.391 136.304 185.391H163.065C203.98 185.391 237.267 218.678 237.267 259.593V316.76C237.267 324.821 230.731 331.357 222.67 331.357ZM91.295 302.162H208.073V259.592C208.073 234.775 187.882 214.584 163.065 214.584H136.304C111.486 214.584 91.295 234.775 91.295 259.592V302.162Z" fill="#507C5C"/>
<path d="M149.684 205.743C111.097 205.743 79.698 174.344 79.698 135.757C79.698 97.1699 111.097 65.771 149.684 65.771C188.271 65.771 219.67 97.1698 219.67 135.757C219.67 174.344 188.272 205.743 149.684 205.743ZM149.684 88.965C123.88 88.965 102.892 109.953 102.892 135.757C102.892 161.561 123.88 182.549 149.684 182.549C175.488 182.549 196.476 161.561 196.476 135.757C196.476 109.953 175.488 88.965 149.684 88.965Z" fill="#BEEA7B" stroke="#507C5C" stroke-width="6"/>
<path d="M318.524 173.218H260.135C252.074 173.218 245.538 166.683 245.538 158.621V99.259C245.538 91.197 252.075 84.662 260.135 84.662H318.524C326.585 84.662 333.121 91.197 333.121 99.259V158.621C333.121 166.683 326.585 173.218 318.524 173.218ZM274.733 144.023H303.927V113.855H274.733V144.023Z" fill="#507C5C"/>
<path d="M376.913 173.218H318.524C310.463 173.218 303.927 166.683 303.927 158.621V99.259C303.927 91.197 310.464 84.662 318.524 84.662H376.913C384.974 84.662 391.51 91.197 391.51 99.259V158.621C391.51 166.683 384.974 173.218 376.913 173.218ZM333.121 144.023H362.315V113.855H333.121V144.023Z" fill="#324E39"/>
<path d="M435.302 173.218H376.913C368.852 173.218 362.316 166.683 362.316 158.621V99.259C362.316 91.197 368.853 84.662 376.913 84.662H435.302C443.363 84.662 449.899 91.197 449.899 99.259C449.899 107.321 443.362 113.856 435.302 113.856H391.51V144.024H435.302C443.363 144.024 449.899 150.559 449.899 158.621C449.899 166.683 443.362 173.218 435.302 173.218Z" fill="#507C5C"/>
<path d="M411.215 237.855H284.221C277.817 237.855 272.624 232.663 272.624 226.258C272.624 219.853 277.818 214.661 284.221 214.661H411.215C417.619 214.661 422.812 219.853 422.812 226.258C422.812 232.663 417.619 237.855 411.215 237.855Z" fill="#CFF09E" stroke="#507C5C" stroke-width="6"/>
<path d="M411.215 313.841H284.221C276.16 313.841 269.624 307.306 269.624 299.244C269.624 291.182 276.161 284.647 284.221 284.647H411.215C419.276 284.647 425.812 291.182 425.812 299.244C425.812 307.306 419.276 313.841 411.215 313.841Z" fill="#507C5C"/>
</g>
<defs>
<clipPath id="clip0_2_84">
<rect width="512" height="395" fill="white"/>
</clipPath>
</defs>
</svg>
