<svg width="907" height="395" viewBox="0 0 907 395" fill="none" xmlns="http://www.w3.org/2000/svg">
<g clip-path="url(#clip0_4_223)">
<path d="M848.185 391.626H453.815C422.765 391.626 397.5 366.362 397.5 335.312V58.815C397.5 27.7647 422.765 2.5 453.815 2.5H848.185C879.235 2.5 904.5 27.7647 904.5 58.815V167.869C904.5 174.55 899.083 179.966 892.403 179.966C885.724 179.966 880.306 174.55 880.306 167.869V58.815C880.306 41.1013 865.899 26.694 848.185 26.694H453.815C436.101 26.694 421.694 41.1013 421.694 58.815V335.312C421.694 353.026 436.101 367.433 453.815 367.433H848.185C865.899 367.433 880.306 353.026 880.306 335.312V260.563C880.306 253.882 885.724 248.466 892.403 248.466C899.083 248.466 904.5 253.882 904.5 260.563V335.312C904.5 366.362 879.235 391.626 848.185 391.626Z" fill="#507C5C" stroke="#283E2E" stroke-width="5"/>
<path d="M617.67 331.357H471.698C463.637 331.357 457.101 324.822 457.101 316.76V259.593C457.101 218.677 490.388 185.391 531.304 185.391H558.065C598.98 185.391 632.267 218.678 632.267 259.593V316.76C632.267 324.821 625.731 331.357 617.67 331.357ZM486.295 302.162H603.073V259.592C603.073 234.775 582.882 214.584 558.065 214.584H531.304C506.486 214.584 486.295 234.775 486.295 259.592V302.162Z" fill="#507C5C"/>
<path d="M544.684 205.743C506.097 205.743 474.698 174.344 474.698 135.757C474.698 97.1699 506.097 65.771 544.684 65.771C583.271 65.771 614.67 97.1698 614.67 135.757C614.67 174.344 583.272 205.743 544.684 205.743ZM544.684 88.965C518.88 88.965 497.892 109.953 497.892 135.757C497.892 161.561 518.88 182.549 544.684 182.549C570.488 182.549 591.476 161.561 591.476 135.757C591.476 109.953 570.488 88.965 544.684 88.965Z" fill="#BEEA7B" stroke="#507C5C" stroke-width="6"/>
<path d="M713.524 173.218H655.135C647.074 173.218 640.538 166.683 640.538 158.621V99.259C640.538 91.197 647.075 84.662 655.135 84.662H713.524C721.585 84.662 728.121 91.197 728.121 99.259V158.621C728.121 166.683 721.585 173.218 713.524 173.218ZM669.733 144.023H698.927V113.855H669.733V144.023Z" fill="#507C5C"/>
<path d="M771.913 173.218H713.524C705.463 173.218 698.927 166.683 698.927 158.621V99.259C698.927 91.197 705.464 84.662 713.524 84.662H771.913C779.974 84.662 786.51 91.197 786.51 99.259V158.621C786.51 166.683 779.974 173.218 771.913 173.218ZM728.121 144.023H757.315V113.855H728.121V144.023Z" fill="#324E39"/>
<path d="M830.302 173.218H771.913C763.852 173.218 757.316 166.683 757.316 158.621V99.259C757.316 91.197 763.853 84.662 771.913 84.662H830.302C838.363 84.662 844.899 91.197 844.899 99.259C844.899 107.321 838.362 113.856 830.302 113.856H786.51V144.024H830.302C838.363 144.024 844.899 150.559 844.899 158.621C844.899 166.683 838.362 173.218 830.302 173.218Z" fill="#507C5C"/>
<path d="M806.215 237.855H679.221C672.817 237.855 667.624 232.663 667.624 226.258C667.624 219.853 672.818 214.661 679.221 214.661H806.215C812.619 214.661 817.812 219.853 817.812 226.258C817.812 232.663 812.619 237.855 806.215 237.855Z" fill="#CFF09E" stroke="#507C5C" stroke-width="6"/>
<path d="M806.215 313.841H679.221C671.16 313.841 664.624 307.306 664.624 299.244C664.624 291.182 671.161 284.647 679.221 284.647H806.215C814.276 284.647 820.812 291.182 820.812 299.244C820.812 307.306 814.276 313.841 806.215 313.841Z" fill="#507C5C"/>
</g>
<g clip-path="url(#clip1_4_223)">
<path d="M175.616 240.371V212.546C175.616 201.576 166.69 192.65 155.719 192.65C144.748 192.65 135.823 201.576 135.823 212.546V237.668C135.823 267.942 124.67 297.008 104.417 319.51L76.4932 350.536C74.1471 353.143 74.3587 357.158 76.9656 359.505C79.5716 361.851 83.5865 361.639 85.9334 359.033L113.857 328.006C136.211 303.167 148.523 271.085 148.523 237.668V212.546C148.523 208.578 151.751 205.35 155.719 205.35C159.688 205.35 162.916 208.578 162.916 212.546V240.371C162.916 277.626 149.114 313.324 124.053 340.891L96.8341 370.832C94.4753 373.426 94.6667 377.444 97.2617 379.803C98.4783 380.909 100.007 381.454 101.531 381.454C103.258 381.454 104.978 380.753 106.231 379.375L133.45 349.434C160.641 319.524 175.616 280.792 175.616 240.371Z" fill="#0099CC"/>
<path d="M202.709 212.546C202.709 186.636 181.63 165.557 155.719 165.557C129.809 165.557 108.73 186.636 108.73 212.546V237.668C108.73 261.238 100.046 283.867 84.2791 301.386L64.4275 323.443C62.0814 326.05 62.293 330.065 64.8999 332.412C67.5068 334.758 71.5208 334.545 73.8677 331.94L93.7193 309.882C111.589 290.027 121.43 264.381 121.43 237.668V212.546C121.43 193.639 136.813 178.257 155.72 178.257C174.628 178.257 190.01 193.639 190.01 212.546V240.371C190.01 284.379 173.707 326.551 144.101 359.115L121.136 384.379C118.776 386.973 118.968 390.99 121.563 393.349C122.779 394.456 124.307 395 125.831 395C127.559 395 129.279 394.3 130.532 392.921L153.499 367.658C185.232 332.751 202.709 287.546 202.709 240.371V212.546Z" fill="#269BFF"/>
<path d="M229.802 212.546C229.802 171.697 196.569 138.464 155.719 138.464C114.87 138.464 81.6366 171.697 81.6366 212.546V237.668C81.6366 254.534 75.423 270.726 64.1404 283.261L46.2657 303.122C43.9196 305.729 44.1313 309.744 46.7382 312.091C49.3442 314.437 53.3599 314.223 55.706 311.618L73.5806 291.758C86.9655 276.886 94.3365 257.676 94.3365 237.668V212.546C94.3365 178.7 121.872 151.164 155.719 151.164C189.566 151.164 217.102 178.7 217.102 212.546V240.371C217.102 291.134 198.296 339.778 164.148 377.34L157.792 384.331C155.433 386.926 155.624 390.943 158.219 393.302C159.436 394.407 160.965 394.953 162.488 394.953C164.215 394.953 165.936 394.252 167.189 392.874L173.544 385.882C209.822 345.977 229.801 294.301 229.801 240.371V212.546H229.802Z" fill="#66B8FF"/>
<path d="M54.5436 212.546C54.5436 216.054 57.3867 218.896 60.8935 218.896C64.4004 218.896 67.2435 216.054 67.2435 212.546C67.2435 191.164 75.0065 170.509 89.1033 154.386C103.069 138.412 122.236 127.966 143.074 124.972C146.546 124.473 148.955 121.254 148.457 117.784C147.958 114.313 144.736 111.907 141.269 112.402C117.427 115.827 95.5049 127.769 79.542 146.028C63.4216 164.465 54.5436 188.089 54.5436 212.546Z" fill="#269BFF"/>
<path d="M67.2435 237.668C67.2435 234.161 64.4004 231.318 60.8935 231.318C57.3867 231.318 54.5436 234.161 54.5436 237.668C54.5436 247.83 50.8005 257.584 44.0035 265.136L28.1041 282.803C25.758 285.409 25.9697 289.424 28.5765 291.771C29.7907 292.863 31.3087 293.401 32.8225 293.401C34.5599 293.401 36.2913 292.691 37.5444 291.299L53.4438 273.632C62.3422 263.744 67.2435 250.973 67.2435 237.668Z" fill="#0099CC"/>
<path d="M244.431 294.353C241.037 293.469 237.569 295.496 236.68 298.888C234.336 307.845 231.42 316.749 228.01 325.353C226.718 328.613 228.314 332.304 231.575 333.595C232.343 333.899 233.134 334.043 233.912 334.043C236.44 334.043 238.83 332.523 239.818 330.03C243.415 320.95 246.493 311.555 248.967 302.103C249.854 298.711 247.823 295.241 244.431 294.353Z" fill="#0099CC"/>
<path d="M223.295 137.306C220.687 134.96 216.672 135.175 214.328 137.783C211.983 140.39 212.196 144.405 214.804 146.75C233.482 163.54 244.194 187.522 244.194 212.546V240.371C244.194 250.931 243.466 261.573 242.029 272.001C241.551 275.476 243.979 278.679 247.453 279.158C247.747 279.198 248.039 279.218 248.328 279.218C251.45 279.218 254.172 276.913 254.61 273.733C256.125 262.733 256.894 251.508 256.894 240.37V212.546C256.895 183.925 244.648 156.501 223.295 137.306Z" fill="#269BFF"/>
<path d="M193.61 132.602C194.491 133.022 195.42 133.22 196.335 133.22C198.708 133.22 200.985 131.883 202.073 129.598C203.581 126.433 202.236 122.643 199.07 121.136C189.921 116.78 180.197 113.841 170.168 112.401C166.692 111.906 163.479 114.313 162.98 117.783C162.482 121.254 164.891 124.473 168.362 124.971C177.124 126.23 185.617 128.797 193.61 132.602Z" fill="#00ACE6"/>
<path d="M155.719 84.2786C153.343 84.2786 150.941 84.3447 148.576 84.475C145.074 84.6681 142.392 87.6635 142.585 91.1644C142.779 94.6662 145.771 97.3628 149.275 97.1545C151.408 97.0368 153.575 96.9776 155.718 96.9776C219.443 96.9776 271.287 148.821 271.287 212.546V240.37C271.287 243.878 274.13 246.72 277.637 246.72C281.144 246.72 283.987 243.878 283.987 240.37V212.546C283.988 141.82 226.447 84.2786 155.719 84.2786Z" fill="#269BFF"/>
<path d="M86.2898 118.731C87.5404 118.731 88.8044 118.362 89.9093 117.594C100.474 110.248 112.077 104.763 124.396 101.29C127.772 100.338 129.737 96.8294 128.785 93.4546C127.834 90.0799 124.324 88.1174 120.95 89.0656C107.268 92.9229 94.3856 99.0129 82.6594 107.166C79.7799 109.169 79.0687 113.126 81.071 116.004C82.3046 117.781 84.2807 118.731 86.2898 118.731Z" fill="#0099CC"/>
<path d="M40.1503 237.668V212.546C40.1503 183.007 51.3372 154.874 71.6502 133.329C74.0556 130.778 73.9379 126.759 71.3861 124.353C68.8343 121.947 64.8152 122.066 62.4098 124.617C39.8658 148.528 27.4504 179.756 27.4504 212.546V237.668C27.4504 241.125 26.177 244.443 23.8656 247.011L16.0358 255.71C13.6897 258.317 13.9013 262.332 16.5082 264.678C17.7215 265.771 19.2404 266.309 20.7542 266.309C22.4915 266.309 24.2221 265.6 25.476 264.207L33.3059 255.508C37.7195 250.603 40.1503 244.267 40.1503 237.668Z" fill="#269BFF"/>
<path d="M303.017 163.105C296.052 142.408 284.984 123.71 270.119 107.529C267.746 104.947 263.729 104.776 261.147 107.149C258.565 109.522 258.394 113.539 260.767 116.122C274.421 130.984 284.587 148.154 290.981 167.155C291.873 169.807 294.347 171.481 296.998 171.481C297.669 171.481 298.353 171.374 299.024 171.148C302.347 170.029 304.135 166.428 303.017 163.105Z" fill="#66B8FF"/>
<path d="M205.902 65.5016C202.585 64.3662 198.973 66.1349 197.838 69.4537C196.703 72.7718 198.472 76.3819 201.79 77.5164C215.792 82.3076 228.938 89.2485 240.863 98.1485C242.004 98.9994 243.336 99.4091 244.657 99.4091C246.592 99.4091 248.504 98.5278 249.751 96.8565C251.849 94.0465 251.27 90.0672 248.46 87.97C235.475 78.2809 221.156 70.7203 205.902 65.5016Z" fill="#269BFF"/>
<path d="M57.0547 109.6C83.766 83.9899 118.806 69.8855 155.719 69.8855C162.574 69.8855 169.466 70.3791 176.205 71.3511C179.679 71.8574 182.896 69.4444 183.397 65.9731C183.899 62.5019 181.492 59.2829 178.02 58.7817C170.681 57.7234 163.178 57.1857 155.719 57.1857C115.514 57.1857 77.3525 72.5449 48.2656 100.434C19.2692 128.236 2.31145 165.545 0.516534 205.49C0.359055 208.993 3.07175 211.961 6.57438 212.118C6.67174 212.123 6.76826 212.125 6.86478 212.125C10.2404 212.125 13.0505 209.466 13.2037 206.06C14.8505 169.39 30.4239 135.134 57.0547 109.6Z" fill="#269BFF"/>
<path d="M155.719 30.0929C141.519 30.0929 127.369 31.7388 113.662 34.9848C110.249 35.7925 108.139 39.2147 108.946 42.6267C109.755 46.0387 113.177 48.1503 116.589 47.3417C129.338 44.3243 142.503 42.7927 155.719 42.7927C202.282 42.7927 245.746 61.3437 278.104 95.0269C279.351 96.3248 281.015 96.9784 282.684 96.9784C284.267 96.9784 285.852 96.3908 287.083 95.208C289.612 92.7782 289.693 88.7583 287.263 86.2302C270.403 68.6799 250.599 54.8735 228.401 45.1971C205.41 35.1745 180.956 30.0929 155.719 30.0929Z" fill="#66B8FF"/>
<path d="M13.0835 109.174C14.2451 110.083 15.6243 110.524 16.9942 110.524C18.8797 110.524 20.7458 109.688 21.998 108.089C40.0953 84.9737 63.9203 66.8426 90.8965 55.6541C94.1358 54.3105 95.6734 50.5954 94.3297 47.3561C92.9861 44.1168 89.2693 42.5776 86.0316 43.9229C57.0412 55.9462 31.4408 75.4269 11.9989 100.258C9.83657 103.021 10.3226 107.012 13.0835 109.174Z" fill="#00ACE6"/>
<path d="M67.6727 35.7866C68.5989 35.7866 69.5396 35.5834 70.4285 35.1533C97.1643 22.2444 125.86 15.6998 155.719 15.6998C171.279 15.6998 186.776 17.5302 201.778 21.1404C205.186 21.9582 208.617 19.8619 209.437 16.4525C210.258 13.043 208.159 9.6132 204.748 8.7928C188.775 4.94899 172.279 3 155.719 3C123.932 3 93.3789 9.96964 64.9075 23.7167C61.7494 25.2416 60.4253 29.0379 61.9501 32.196C63.0448 34.4641 65.3122 35.7866 67.6727 35.7866Z" fill="#269BFF"/>
<path d="M228.319 29.5705C234.865 32.1773 241.344 35.1745 247.577 38.4773C248.524 38.9802 249.542 39.2181 250.544 39.2181C252.82 39.2181 255.021 37.9913 256.16 35.84C257.802 32.7412 256.622 28.8983 253.523 27.2558C246.888 23.7396 239.988 20.5486 233.017 17.7724C229.758 16.4745 226.066 18.0645 224.768 21.3216C223.471 24.5795 225.061 28.2734 228.319 29.5705Z" fill="#0099CC"/>
</g>
<defs>
<clipPath id="clip0_4_223">
<rect width="512" height="395" fill="white" transform="translate(395)"/>
</clipPath>
<clipPath id="clip1_4_223">
<rect width="304" height="392" fill="white" transform="translate(0 3)"/>
</clipPath>
</defs>
</svg>
