<svg width="907" height="395" viewBox="0 0 907 395" fill="none" xmlns="http://www.w3.org/2000/svg">
<g clip-path="url(#clip0_3_128)">
<path d="M848.185 392.626H453.815C422.212 392.626 396.5 366.915 396.5 335.312V58.815C396.5 27.2124 422.212 1.5 453.815 1.5H848.185C879.788 1.5 905.5 27.2124 905.5 58.815V167.869C905.5 175.102 899.635 180.966 892.403 180.966C885.171 180.966 879.306 175.102 879.306 167.869V58.815C879.306 41.6536 865.346 27.694 848.185 27.694H453.815C436.654 27.694 422.694 41.6536 422.694 58.815V335.312C422.694 352.473 436.654 366.433 453.815 366.433H848.185C865.346 366.433 879.306 352.473 879.306 335.312V260.563C879.306 253.33 885.171 247.466 892.403 247.466C899.635 247.466 905.5 253.33 905.5 260.563V335.312C905.5 366.915 879.788 392.626 848.185 392.626Z" fill="#1E2F22" stroke="#1E2F22" stroke-width="3"/>
<path d="M617.67 331.357H471.698C463.637 331.357 457.101 324.822 457.101 316.76V259.593C457.101 218.677 490.388 185.391 531.304 185.391H558.065C598.98 185.391 632.267 218.678 632.267 259.593V316.76C632.267 324.821 625.731 331.357 617.67 331.357ZM486.295 302.162H603.073V259.592C603.073 234.775 582.882 214.584 558.065 214.584H531.304C506.486 214.584 486.295 234.775 486.295 259.592V302.162Z" fill="#1E2F22"/>
<path d="M544.684 205.743C506.097 205.743 474.698 174.344 474.698 135.757C474.698 97.1699 506.097 65.771 544.684 65.771C583.271 65.771 614.67 97.1698 614.67 135.757C614.67 174.344 583.272 205.743 544.684 205.743ZM544.684 88.965C518.88 88.965 497.892 109.953 497.892 135.757C497.892 161.561 518.88 182.549 544.684 182.549C570.488 182.549 591.476 161.561 591.476 135.757C591.476 109.953 570.488 88.965 544.684 88.965Z" fill="#1E2F22" stroke="#1E2F22" stroke-width="6"/>
<path d="M713.524 173.218H655.135C647.074 173.218 640.538 166.683 640.538 158.621V99.259C640.538 91.197 647.075 84.662 655.135 84.662H713.524C721.585 84.662 728.121 91.197 728.121 99.259V158.621C728.121 166.683 721.585 173.218 713.524 173.218ZM669.733 144.023H698.927V113.855H669.733V144.023Z" fill="#1E2F22"/>
<path d="M771.913 173.218H713.524C705.463 173.218 698.927 166.683 698.927 158.621V99.259C698.927 91.197 705.464 84.662 713.524 84.662H771.913C779.974 84.662 786.51 91.197 786.51 99.259V158.621C786.51 166.683 779.974 173.218 771.913 173.218ZM728.121 144.023H757.315V113.855H728.121V144.023Z" fill="#1E2F22"/>
<path d="M830.302 173.218H771.913C763.852 173.218 757.316 166.683 757.316 158.621V99.259C757.316 91.197 763.853 84.662 771.913 84.662H830.302C838.363 84.662 844.899 91.197 844.899 99.259C844.899 107.321 838.362 113.856 830.302 113.856H786.51V144.024H830.302C838.363 144.024 844.899 150.559 844.899 158.621C844.899 166.683 838.362 173.218 830.302 173.218Z" fill="#1E2F22"/>
<path d="M806.215 237.855H679.221C672.817 237.855 667.624 232.663 667.624 226.258C667.624 219.853 672.818 214.661 679.221 214.661H806.215C812.619 214.661 817.812 219.853 817.812 226.258C817.812 232.663 812.619 237.855 806.215 237.855Z" fill="#1E2F22" stroke="#1E2F22" stroke-width="6"/>
<path d="M806.215 313.841H679.221C671.16 313.841 664.624 307.306 664.624 299.244C664.624 291.182 671.161 284.647 679.221 284.647H806.215C814.276 284.647 820.812 291.182 820.812 299.244C820.812 307.306 814.276 313.841 806.215 313.841Z" fill="#1E2F22"/>
</g>
<g clip-path="url(#clip1_3_128)">
<path d="M175.611 238.371V210.546C175.611 199.576 166.686 190.65 155.715 190.65C144.744 190.65 135.819 199.576 135.819 210.546V235.668C135.819 265.942 124.666 295.008 104.413 317.51L76.4895 348.536C74.1435 351.143 74.3551 355.158 76.962 357.505C79.568 359.851 83.5828 359.639 85.9297 357.033L113.853 326.006C136.207 301.167 148.518 269.085 148.518 235.668V210.546C148.518 206.578 151.747 203.35 155.715 203.35C159.683 203.35 162.912 206.578 162.912 210.546V238.371C162.912 275.626 149.11 311.324 124.049 338.891L96.8304 368.832C94.4716 371.426 94.6629 375.444 97.2579 377.803C98.4746 378.909 100.003 379.454 101.527 379.454C103.254 379.454 104.974 378.753 106.227 377.375L133.446 347.434C160.637 317.524 175.611 278.792 175.611 238.371Z" fill="#003666"/>
<path d="M202.704 210.546C202.704 184.636 181.625 163.557 155.715 163.557C129.805 163.557 108.726 184.636 108.726 210.546V235.668C108.726 259.238 100.043 281.867 84.2754 299.386L64.4239 321.443C62.0778 324.05 62.2895 328.065 64.8963 330.412C67.5032 332.758 71.5172 332.545 73.8641 329.94L93.7155 307.882C111.585 288.027 121.426 262.381 121.426 235.668V210.546C121.426 191.639 136.808 176.257 155.716 176.257C174.623 176.257 190.005 191.639 190.005 210.546V238.371C190.005 282.379 173.702 324.551 144.097 357.115L121.132 382.379C118.772 384.973 118.964 388.99 121.559 391.349C122.775 392.456 124.303 393 125.827 393C127.555 393 129.275 392.3 130.528 390.921L153.494 365.658C185.228 330.751 202.704 285.546 202.704 238.371V210.546Z" fill="#00294D"/>
<path d="M229.797 210.546C229.797 169.697 196.564 136.464 155.715 136.464C114.866 136.464 81.633 169.697 81.633 210.546V235.668C81.633 252.534 75.4194 268.726 64.1369 281.261L46.2624 301.122C43.9163 303.729 44.128 307.744 46.7348 310.091C49.3408 312.437 53.3565 312.223 55.7025 309.618L73.5771 289.758C86.9618 274.886 94.3327 255.676 94.3327 235.668V210.546C94.3327 176.7 121.868 149.164 155.715 149.164C189.562 149.164 217.097 176.7 217.097 210.546V238.371C217.097 289.134 198.291 337.778 164.143 375.34L157.788 382.331C155.429 384.926 155.62 388.943 158.215 391.302C159.432 392.407 160.961 392.953 162.484 392.953C164.211 392.953 165.932 392.252 167.185 390.874L173.54 383.882C209.817 343.977 229.796 292.301 229.796 238.371V210.546H229.797Z" fill="#004480"/>
<path d="M54.5401 210.546C54.5401 214.054 57.3831 216.896 60.89 216.896C64.3968 216.896 67.2399 214.054 67.2399 210.546C67.2399 189.164 75.0028 168.509 89.0996 152.386C103.065 136.412 122.232 125.966 143.07 122.972C146.542 122.473 148.951 119.254 148.452 115.784C147.954 112.313 144.732 109.907 141.264 110.402C117.423 113.827 95.5011 125.769 79.5383 144.027C63.4181 162.465 54.5401 186.089 54.5401 210.546Z" fill="#00294D"/>
<path d="M67.2399 235.668C67.2399 232.161 64.3968 229.318 60.89 229.318C57.3831 229.318 54.5401 232.161 54.5401 235.668C54.5401 245.83 50.797 255.584 44.0001 263.136L28.1008 280.803C25.7547 283.409 25.9664 287.424 28.5733 289.771C29.7873 290.863 31.3054 291.401 32.8192 291.401C34.5565 291.401 36.2879 290.691 37.541 289.299L53.4403 271.632C62.3386 261.744 67.2399 248.973 67.2399 235.668Z" fill="#004D66"/>
<path d="M244.426 292.352C241.032 291.469 237.564 293.496 236.675 296.888C234.331 305.845 231.415 314.749 228.006 323.353C226.714 326.613 228.31 330.304 231.57 331.595C232.338 331.899 233.129 332.043 233.908 332.043C236.435 332.043 238.825 330.523 239.813 328.03C243.41 318.95 246.488 309.555 248.962 300.103C249.849 296.711 247.818 293.241 244.426 292.352Z" fill="#003666"/>
<path d="M223.291 135.306C220.682 132.96 216.667 133.175 214.323 135.783C211.978 138.39 212.192 142.405 214.799 144.75C233.477 161.54 244.189 185.522 244.189 210.546V238.371C244.189 248.931 243.461 259.573 242.024 270.001C241.546 273.476 243.974 276.679 247.448 277.158C247.742 277.198 248.034 277.218 248.323 277.218C251.445 277.218 254.167 274.913 254.605 271.733C256.12 260.733 256.889 249.508 256.889 238.37V210.546C256.89 181.925 244.643 154.501 223.291 135.306Z" fill="#00294D"/>
<path d="M193.605 130.602C194.487 131.022 195.415 131.22 196.331 131.22C198.704 131.22 200.98 129.883 202.068 127.598C203.576 124.433 202.231 120.643 199.065 119.136C189.916 114.78 180.193 111.841 170.164 110.401C166.688 109.906 163.475 112.313 162.976 115.783C162.477 119.254 164.887 122.473 168.358 122.971C177.119 124.23 185.613 126.797 193.605 130.602Z" fill="#005299"/>
<path d="M155.715 82.2786C153.339 82.2786 150.937 82.3447 148.572 82.475C145.07 82.6681 142.388 85.6635 142.581 89.1644C142.775 92.6662 145.767 95.3628 149.271 95.1545C151.404 95.0368 153.571 94.9776 155.714 94.9776C219.438 94.9776 271.282 146.821 271.282 210.546V238.37C271.282 241.878 274.125 244.72 277.632 244.72C281.139 244.72 283.982 241.878 283.982 238.37V210.546C283.983 139.82 226.442 82.2786 155.715 82.2786Z" fill="#00294D"/>
<path d="M86.2862 116.731C87.5367 116.731 88.8007 116.362 89.9056 115.594C100.47 108.248 112.073 102.763 124.392 99.2896C127.768 98.3379 129.733 94.8294 128.781 91.4546C127.83 88.0799 124.32 86.1173 120.946 87.0656C107.265 90.9229 94.3819 97.0129 82.6557 105.166C79.7763 107.168 79.0651 111.126 81.0674 114.004C82.301 115.781 84.2771 116.731 86.2862 116.731Z" fill="#004480"/>
<path d="M40.147 235.668V210.546C40.147 181.007 51.3338 152.874 71.6467 131.329C74.052 128.778 73.9344 124.759 71.3825 122.353C68.8307 119.947 64.8117 120.066 62.4063 122.617C39.8625 146.528 27.4472 177.756 27.4472 210.546V235.668C27.4472 239.125 26.1738 242.443 23.8625 245.011L16.0327 253.71C13.6866 256.317 13.8982 260.332 16.5051 262.678C17.7183 263.771 19.2372 264.309 20.751 264.309C22.4884 264.309 24.2189 263.6 25.4728 262.207L33.3027 253.508C37.7163 248.603 40.147 242.267 40.147 235.668Z" fill="#00294D"/>
<path d="M303.011 161.105C296.047 140.408 284.979 121.71 270.114 105.529C267.741 102.947 263.724 102.776 261.142 105.149C258.56 107.522 258.389 111.539 260.762 114.122C274.416 128.984 284.581 146.154 290.975 165.155C291.868 167.807 294.342 169.481 296.993 169.481C297.664 169.481 298.347 169.374 299.019 169.148C302.342 168.029 304.13 164.428 303.011 161.105Z" fill="#003666"/>
<path d="M205.897 63.5016C202.581 62.3662 198.969 64.1349 197.833 67.4537C196.698 70.7718 198.468 74.3819 201.786 75.5164C215.788 80.3076 228.934 87.2485 240.859 96.1485C241.999 96.9994 243.331 97.4091 244.652 97.4091C246.587 97.4091 248.499 96.5278 249.746 94.8565C251.844 92.0464 251.265 88.0672 248.455 85.97C235.47 76.2809 221.151 68.7203 205.897 63.5016Z" fill="#00294D"/>
<path d="M57.0513 107.6C83.7623 81.9899 118.802 67.8855 155.715 67.8855C162.57 67.8855 169.462 68.3791 176.201 69.3511C179.674 69.8574 182.892 67.4444 183.393 63.9731C183.894 60.5019 181.487 57.2829 178.016 56.7817C170.677 55.7234 163.174 55.1857 155.715 55.1857C115.51 55.1857 77.3489 70.5449 48.2622 98.4336C19.266 126.236 2.30842 163.545 0.513512 203.49C0.356035 206.993 3.06871 209.961 6.57131 210.118C6.66867 210.123 6.76519 210.125 6.86171 210.125C10.2373 210.125 13.0474 207.466 13.2006 204.06C14.8473 167.39 30.4207 133.134 57.0513 107.6Z" fill="#00294D"/>
<path d="M155.715 28.0929C141.515 28.0929 127.365 29.7388 113.658 32.9848C110.246 33.7925 108.135 37.2147 108.943 40.6267C109.751 44.0387 113.173 46.1503 116.585 45.3417C129.334 42.3243 142.499 40.7927 155.715 40.7927C202.278 40.7927 245.741 59.3437 278.099 93.0269C279.346 94.3248 281.01 94.9784 282.679 94.9784C284.261 94.9784 285.846 94.3908 287.077 93.208C289.606 90.7782 289.688 86.7583 287.258 84.2302C270.398 66.6799 250.594 52.8735 228.397 43.1972C205.405 33.1745 180.951 28.0929 155.715 28.0929Z" fill="#004480"/>
<path d="M13.0804 107.174C14.242 108.083 15.6212 108.524 16.9911 108.524C18.8766 108.524 20.7426 107.688 21.9948 106.089C40.092 82.9737 63.9168 64.8427 90.8928 53.6541C94.1321 52.3105 95.6696 48.5954 94.326 45.3561C92.9823 42.1168 89.2655 40.5776 86.0279 41.9229C57.0377 53.9462 31.4375 73.4269 11.9958 98.2583C9.83346 101.021 10.3194 105.012 13.0804 107.174Z" fill="#005299"/>
<path d="M67.6691 33.7866C68.5954 33.7866 69.536 33.5834 70.425 33.1533C97.1606 20.2444 125.856 13.6998 155.715 13.6998C171.275 13.6998 186.772 15.5302 201.774 19.1404C205.182 19.9582 208.612 17.8619 209.433 14.4525C210.253 11.043 208.154 7.6132 204.744 6.79279C188.771 2.94899 172.275 1 155.715 1C123.928 1 93.3752 7.96964 64.904 21.7167C61.7459 23.2416 60.4218 27.0379 61.9466 30.196C63.0413 32.4641 65.3087 33.7866 67.6691 33.7866Z" fill="#004480"/>
<path d="M228.314 27.5705C234.86 30.1773 241.34 33.1745 247.572 36.4773C248.519 36.9802 249.537 37.2181 250.539 37.2181C252.815 37.2181 255.016 35.9913 256.155 33.8399C257.797 30.7412 256.617 26.8982 253.518 25.2557C246.883 21.7396 239.983 18.5486 233.012 15.7724C229.753 14.4745 226.061 16.0645 224.763 19.3216C223.466 22.5795 225.056 26.2734 228.314 27.5705Z" fill="#00294D"/>
</g>
<defs>
<clipPath id="clip0_3_128">
<rect width="512" height="395" fill="white" transform="translate(395)"/>
</clipPath>
<clipPath id="clip1_3_128">
<rect width="304" height="392" fill="white" transform="translate(0 1)"/>
</clipPath>
</defs>
</svg>
