<svg width="296" height="453" viewBox="0 0 296 453" fill="none" xmlns="http://www.w3.org/2000/svg">
<path d="M162 294.042C110.4 275.242 63.1667 390.875 46 451.042H273.5L265 430.542C252.167 392.875 213.6 312.842 162 294.042Z" fill="#D65151" stroke="black" stroke-width="3"/>
<ellipse cx="143" cy="175" rx="143" ry="151" fill="#FAD5CA"/>
<ellipse cx="51.5" cy="150" rx="11.5" ry="11" fill="black"/>
<ellipse cx="51.5" cy="150" rx="11.5" ry="11" fill="black"/>
<ellipse cx="51.5" cy="150" rx="11.5" ry="11" fill="black"/>
<ellipse cx="131.5" cy="150" rx="11.5" ry="11" fill="black"/>
<ellipse cx="131.5" cy="150" rx="11.5" ry="11" fill="black"/>
<ellipse cx="131.5" cy="150" rx="11.5" ry="11" fill="black"/>
<path d="M77.5 181C76.8157 183.888 80.6966 188.773 86.0098 186C91.323 183.227 90.0097 182 90.0097 181" stroke="black" stroke-width="3"/>
<path d="M94.9282 50.7584L95.6159 49.6194L94.3483 50.0236C82.8653 53.6848 65.6543 58.0732 51.3306 59.352C44.1601 59.9921 37.7687 59.8472 33.1902 58.4772C30.9049 57.7934 29.1082 56.8151 27.8862 55.5119C26.6748 54.22 26 52.5796 26 50.5C26 47.9147 27.2418 45.253 29.5613 42.546C31.8789 39.8412 35.2372 37.1333 39.38 34.4673C47.6641 29.1362 59.0008 24.0259 71.1754 19.4682C95.5228 10.3536 123.114 3.48826 136.076 1.49415C148.963 -0.488514 162.626 2.23488 175.542 6.1658C181.918 8.10634 188.098 10.3365 193.905 12.432L194.119 12.5093C199.982 14.6249 205.469 16.6004 210.364 17.9812C218.055 20.1505 228.526 27.2126 238.538 35.2278C248.496 43.2 257.927 52.0546 263.589 57.795C269.828 70.1993 278.82 90.6874 285.561 111.914C292.322 133.206 296.784 155.143 294.008 170.411C292.611 178.093 291.084 183.798 289.536 187.968C287.985 192.145 286.424 194.752 284.976 196.267C283.537 197.774 282.247 198.168 281.191 198.031C280.112 197.89 279.142 197.176 278.398 196.197L278.072 195.768L277.668 196.126L251.811 219.056C249.413 208.011 241.714 182.452 228.421 161.73C214.842 140.562 198.066 140.602 191.025 143.448C174.408 134.714 135.347 113.399 110.273 97.0809C97.7784 88.9496 92.6606 79.5251 91.2937 71.0826C89.9234 62.6185 92.3146 55.0872 94.9282 50.7584Z" fill="#624F4F" stroke="black"/>
</svg>
